<svg width="93" height="93" viewBox="0 0 93 93" fill="none" xmlns="http://www.w3.org/2000/svg">
<path d="M0 46.3C0 20.7292 20.7292 0 46.3 0C71.8708 0 92.6 20.7292 92.6 46.3C92.6 71.8708 71.8708 92.6 46.3 92.6C20.7292 92.6 0 71.8708 0 46.3Z" fill="#96BB7C"/>
<g clip-path="url(#clip0_1015_463)">
<path d="M54.5397 47.7031L39.4284 56.7267C38.1459 57.4917 36.5001 56.5654 36.5001 55.0232V36.9759C36.5001 35.4361 38.1435 34.5074 39.4284 35.2748L54.5397 44.2985C54.8315 44.4698 55.074 44.7176 55.2426 45.0166C55.4113 45.3155 55.5001 45.6551 55.5001 46.0008C55.5001 46.3465 55.4113 46.686 55.2426 46.985C55.074 47.284 54.8315 47.5317 54.5397 47.7031Z" fill="white"/>
</g>
<defs>
<clipPath id="clip0_1015_463">
<rect width="19" height="23" fill="white" transform="translate(36.8 34.8)"/>
</clipPath>
</defs>
</svg>
